<svg height="511pt" viewBox="0 -10 511.998 511" width="511pt" xmlns="http://www.w3.org/2000/svg"><path style="fill:#fff" d="m469.617188.5h-427.234376c-23.371093 0-42.382812 19.011719-42.382812 42.382812v345.132813c0 23.371094 19.011719 42.382813 42.382812 42.382813h137.882813v32.03125h-11.199219c-8.285156 0-15 6.714843-15 15 0 8.285156 6.714844 15 15 15h173.867188c8.285156 0 15-6.714844 15-15 0-8.285157-6.714844-15-15-15h-11.199219v-32.03125h137.878906c23.371094 0 42.382813-19.011719 42.382813-42.382813v-345.132813c.003906-23.371093-19.007813-42.382812-42.378906-42.382812zm-10.789063 325.453125c0 8.285156-6.714844 15-15 15h-375.65625c-8.285156 0-15-6.714844-15-15v-261.011719c0-8.285156 6.714844-15 15-15h375.65625c8.285156 0 15 6.714844 15 15zm0 0"/></svg>